<svg height="428pt" viewBox="0 -56 428.20437 428" width="428pt" xmlns="http://www.w3.org/2000/svg"><path d="m387.738281 163.871094c-12.40625 10.953125-27.925781 17.902344-46.035156 17.902344-49.503906 0-99.59375-51.921876-99.59375-95.65625 0-43.734376 40.128906-79.1875 89.632813-79.1875 49.5 0 89.628906 35.453124 89.628906 79.1875 0 13.25-2.769532 27.253906-8.007813 40.335937" fill="#00e7ff"/><path d="m341.703125 188.601562c-51.722656 0-106.421875-52.679687-106.421875-102.488281 0-47.425781 43.273438-86.011719 96.460938-86.011719 53.191406 0 96.460937 38.585938 96.460937 86.011719 0 14.15625-2.9375 28.980469-8.492187 42.875-1.398438 3.507813-5.414063 5.199219-8.875 3.804688-3.5-1.398438-5.207032-5.371094-3.804688-8.871094 4.921875-12.300781 7.519531-25.375 7.519531-37.808594 0-39.898437-37.148437-72.359375-82.808593-72.359375-45.660157 0-82.804688 32.460938-82.804688 72.359375 0 44.914063 53.117188 88.835938 92.765625 88.835938 15.386719 0 29.351563-5.445313 41.511719-16.195313 2.832031-2.492187 7.148437-2.230468 9.632812.59375 2.5 2.828125 2.234375 7.144532-.59375 9.636719-14.519531 12.828125-32 19.617187-50.550781 19.617187zm0 0" fill="#602f75"/><path d="m6.832031 86.117188c0 43.734374 30.167969 95.65625 79.671875 95.65625 49.5 0 99.589844-51.921876 99.589844-95.65625 0-43.734376-40.132812-79.1875-89.632812-79.1875-49.503907 0-89.628907 35.453124-89.628907 79.1875zm0 0" fill="#00e7ff"/><path d="m86.5 188.601562c-51.738281 0-86.5-52.992187-86.5-102.488281 0-47.425781 43.273438-86.011719 96.460938-86.011719s96.460937 38.585938 96.460937 86.011719c0 49.808594-54.699219 102.488281-106.421875 102.488281zm9.960938-174.847656c-45.660157 0-82.808594 32.460938-82.808594 72.359375 0 37.242188 25.3125 88.835938 72.847656 88.835938 39.648438 0 92.765625-43.921875 92.765625-88.835938.003906-39.898437-37.144531-72.359375-82.804687-72.359375zm0 0" fill="#602f75"/><path d="m334.421875 13.753906h-245.761719c-3.773437 0-6.824218-3.050781-6.824218-6.824218 0-3.773438 3.050781-6.828126 6.824218-6.828126h245.761719c3.773437 0 6.824219 3.054688 6.824219 6.828126 0 3.773437-3.050782 6.824218-6.824219 6.824218zm0 0" fill="#602f75"/><path d="m242.195312 99.636719c-3.773437 0-6.828124-3.054688-6.828124-6.828125 0-11.726563-9.539063-21.265625-21.265626-21.265625-11.726562 0-21.265624 9.539062-21.265624 21.265625 0 3.773437-3.054688 6.828125-6.828126 6.828125-3.773437 0-6.828124-3.054688-6.828124-6.828125 0-19.253906 15.667968-34.921875 34.921874-34.921875 19.253907 0 34.917969 15.667969 34.917969 34.921875 0 3.773437-3.050781 6.828125-6.824219 6.828125zm0 0" fill="#602f75"/><path d="m214.101562 221.613281s46.550782-36.613281 122.386719 32.078125c22.785157 20.636719 59.671875 14.207032 71.929688-13.988281.613281-1.410156 1.199219-2.875 1.75-4.398437 0 0-54.773438 176.773437-196.066407-13.691407zm0 0" fill="#ffe600"/><path d="m332.027344 316.792969c-37.050782 0-78.5-30.578125-123.40625-91.117188-2.207032-2.96875-1.648438-7.148437 1.257812-9.433593 2.089844-1.640626 51.976563-39.359376 131.1875 32.386718 9.519532 8.613282 22.648438 12.125 35.105469 9.464844 11.789063-2.542969 21.253906-10.238281 25.980469-21.113281.5625-1.285157 1.09375-2.625 1.601562-4.003907 1.265625-3.472656 5.054688-5.328124 8.59375-4.136718 3.515625 1.179687 5.441406 4.949218 4.339844 8.488281-.878906 2.847656-22.179688 69.765625-73.601562 78.535156-3.636719.617188-7.324219.929688-11.058594.929688zm-107.859375-93.160157c44.21875 57.902344 83.375 84.429688 116.585937 78.78125 19.6875-3.347656 34.457032-17.890624 44.726563-32.792968-2.082031.734375-4.222657 1.339844-6.429688 1.8125-16.773437 3.621094-34.382812-1.132813-47.144531-12.6875-55.945312-50.671875-93.8125-41.558594-107.738281-35.113282zm0 0" fill="#ffe600"/><path d="m214.101562 221.613281s-46.550781-36.613281-122.386718 32.078125c-22.785156 20.636719-59.675782 14.207032-71.929688-13.988281-.613281-1.410156-1.199218-2.875-1.75-4.398437 0 0 54.773438 176.773437 196.066406-13.691407zm0 0" fill="#ffe600"/><path d="m96.175781 316.792969c-3.734375 0-7.421875-.3125-11.0625-.933594-51.417969-8.765625-72.71875-75.683594-73.597656-78.53125-1.101563-3.539063.824219-7.308594 4.339844-8.488281 3.507812-1.199219 7.328125.652344 8.59375 4.132812.503906 1.382813 1.039062 2.722656 1.601562 4 4.726563 10.882813 14.191407 18.574219 25.980469 21.121094 12.464844 2.660156 25.585938-.851562 35.105469-9.464844 79.21875-71.734375 129.101562-34.03125 131.183593-32.390625 2.90625 2.289063 3.46875 6.46875 1.261719 9.433594-44.90625 60.535156-86.355469 91.121094-123.40625 91.121094zm-53.453125-47.171875c10.265625 14.902344 25.039063 29.449218 44.726563 32.792968 33.234375 5.65625 72.378906-20.878906 116.585937-78.777343-13.929687-6.453125-51.789062-15.558594-107.742187 35.113281-12.753907 11.554688-30.371094 16.3125-47.144531 12.6875-2.207032-.476562-4.347657-1.082031-6.425782-1.816406zm0 0" fill="#ffe600"/><g fill="#602f75"><path d="m341.703125 102.707031c-1.746094 0-3.496094-.664062-4.828125-2-2.664062-2.664062-2.664062-6.984375 0-9.652343l58.378906-58.378907c2.667969-2.664062 6.988282-2.664062 9.65625 0 2.664063 2.664063 2.664063 6.988281 0 9.652344l-58.382812 58.378906c-1.332032 1.335938-3.078125 2-4.824219 2zm0 0"/><path d="m296.886719 72.828125c-1.867188 0-3.726563-.757813-5.074219-2.257813-2.519531-2.800781-2.296875-7.113281.507812-9.640624l58.015626-52.246094c2.777343-2.515625 7.113281-2.308594 9.636718.507812 2.523438 2.800782 2.300782 7.113282-.507812 9.636719l-58.011719 52.246094c-1.296875 1.175781-2.929687 1.753906-4.566406 1.753906zm0 0"/><path d="m275.113281 159.375c-1.746093 0-3.492187-.667969-4.824219-2-2.667968-2.664062-2.667968-6.988281 0-9.652344l36.886719-36.886718c2.664063-2.664063 6.984375-2.664063 9.652344 0 2.664063 2.664062 2.664063 6.988281 0 9.652343l-36.886719 36.886719c-1.332031 1.332031-3.082031 2-4.828125 2zm0 0"/><path d="m102.6875 102.707031c-1.746094 0-3.492188-.664062-4.824219-2-2.667969-2.664062-2.667969-6.984375 0-9.652343l58.371094-58.378907c2.667969-2.664062 6.988281-2.664062 9.652344 0 2.667969 2.664063 2.667969 6.988281 0 9.652344l-58.371094 58.378906c-1.332031 1.335938-3.082031 2-4.828125 2zm0 0"/><path d="m57.867188 72.828125c-1.867188 0-3.726563-.757813-5.074219-2.257813-2.523438-2.808593-2.292969-7.121093.507812-9.640624l58.101563-52.246094c2.800781-2.519532 7.117187-2.308594 9.636718.507812 2.527344 2.804688 2.292969 7.117188-.503906 9.636719l-58.101562 52.246094c-1.304688 1.175781-2.9375 1.753906-4.566406 1.753906zm0 0"/><path d="m36.101562 159.375c-1.746093 0-3.492187-.667969-4.828124-2-2.664063-2.664062-2.664063-6.988281 0-9.652344l36.886718-36.886718c2.667969-2.664063 6.988282-2.664063 9.652344 0 2.667969 2.664062 2.667969 6.988281 0 9.652343l-36.886719 36.886719c-1.332031 1.332031-3.078125 2-4.824219 2zm0 0"/></g></svg>