<svg xmlns="http://www.w3.org/2000/svg" width="77.998" height="78.01" viewBox="0 0 77.998 78.01"><path fill-rule="evenodd" clip-rule="evenodd" fill="#024F9E" d="M39 0C17.46 0 0 17.463 0 39.006 0 60.546 17.46 78.01 39 78.01c21.538 0 38.998-17.463 38.998-39.004 0-21.543-17.46-39.006-39-39.006zm0 74.615c-19.664 0-35.604-15.944-35.604-35.61C3.396 19.34 19.336 3.4 39 3.4c19.66 0 35.602 15.94 35.602 35.608 0 19.665-15.942 35.61-35.603 35.61zM21.825 19.19c-4.465-.192-5.322-.97-8.176-1.388-5.16 5.035-9.092 16.866-7.236 26.99 1.014 5.524 3.787 11.248 6.952 14.47 1.76-.944 4.53-2.076 8.46-2.58 0-.377.002-37.104 0-37.493zM36.42 61.275c-7.884-.06-13.912.333-18.996 2.203 10.754 10.505 32.018 10.63 42.52.312-7.108 1.575-15.284-2.452-23.525-2.516zM24.466 19.22v37.056h3.774V19.22h-3.773zm1.826-10.665c-2.604 1.057-6.25 3.104-8.053 4.658 5.117.754 8.912 1.164 13.63.922 3.615-.187 7.715-.503 10.946-1.176 1.804-.376 2.473-1.533 4.233-1.553 3.73-.04 7.255 2.97 9.392 5.703.788 1.013 2.007 2.98 2.306 4.49.212 1.065-.242 1.935-.712 1.97-2.18.17-3.563-3.02-7.002-4.195-4.153-1.418-8.052-.29-13.923-.25 0 .21-.04 14.133-.083 14.3 5.368.17 8.686-.833 10.525-3.942l.444-1.21s.585-.276.552.11c-.126 1.62-.49 4.84-.45 7.553.035 3.022.377 7.307.377 7.307s-.306.33-.528-.064c-.602-1.07-.84-2.274-1.86-3.124-2.193-1.828-5.682-2.217-8.976-2.057l-.04 18.286c9.266-.085 12.6 2.697 20.42 2.434 2.985-.103 6.225-1.39 7.632-3.397 2.16-3.077 1.89-9.06-.838-10.864-2.84-1.88-8.89-1.384-8.387 3.188.713.334 1.768 1.318 1.51 2.936-.07.442-.76 2.668-3.355 1.93-3.104-.88-3.313-4.4-2.682-7.34 1.202-5.61 9.73-7.76 14.678-4.49 1.058.702 2.488 1.867 3.647 3.86.422.728.965 2.59 1.066 3.742.12.174.13-.155.19-.428 7.215-28.145-19.833-49.37-44.657-39.303z"/></svg>