<?xml version="1.0" encoding="iso-8859-1"?>
<!-- Generator: Adobe Illustrator 19.0.0, SVG Export Plug-In . SVG Version: 6.00 Build 0)  -->
<svg version="1.1" id="Layer_1" xmlns="http://www.w3.org/2000/svg" xmlns:xlink="http://www.w3.org/1999/xlink" x="0px" y="0px"
	 viewBox="0 0 512 512" style="enable-background:new 0 0 512 512;" xml:space="preserve">
<polygon style="fill:#EDEEF0;" points="268.68,313.053 243.319,313.053 243.319,512 268.68,489.009 "/>
<polygon style="fill:#DCDEE2;" points="268.68,313.053 255.999,313.053 255.999,500.504 268.68,489.009 "/>
<rect x="223.63" y="24.732" style="fill:#EDEEF0;" width="64.23" height="43.09"/>
<rect x="255.74" y="24.732" style="fill:#DCDEE2;" width="32.11" height="43.09"/>
<path style="fill:#EDEEF0;" d="M268.68,324.056h-12.681h-12.681l-2.218-4.963c-0.275-0.613-27.766-62.217-58.102-139.769
	c-17.95-45.891-8.562-74.799,2.477-90.968C199.914,67.202,226.28,54.573,256,54.573s56.084,12.63,70.526,33.784
	c11.038,16.169,20.427,45.076,2.477,90.968c-30.336,77.552-57.827,139.157-58.102,139.769L268.68,324.056z"/>
<path style="fill:#DCDEE2;" d="M268.68,324.056h-12.681c0,0,0-254.202,0-269.485c29.72,0,56.084,12.63,70.526,33.784
	c11.038,16.169,20.427,45.076,2.477,90.968c-30.336,77.552-57.827,139.157-58.102,139.769L268.68,324.056z"/>
<path style="fill:#61A2EF;" d="M189.729,131.547c-0.001,12.501,2.955,26.498,8.889,41.668
	c25.251,64.553,48.51,117.978,55.597,134.071h3.572c7.086-16.092,30.346-69.517,55.597-134.071
	c5.934-15.169,8.89-29.166,8.889-41.668L189.729,131.547L189.729,131.547z"/>
<rect x="223.63" y="15.694" style="fill:#D8D9DD;" width="64.23" height="12.611"/>
<rect x="255.74" y="15.694" style="fill:#B7B9C0;" width="32.11" height="12.611"/>
<rect x="214.93" style="fill:#EDEEF0;" width="81.41" height="19.344"/>
<rect x="255.74" style="fill:#DCDEE2;" width="40.602" height="19.344"/>
<rect x="223.89" y="330.86" style="fill:#444242;" width="64.23" height="15.649"/>
<path style="fill:#61A2EF;" d="M223.887,354.236L223.887,354.236c-4.59,0-8.311-3.721-8.311-8.311v-14.478
	c0-4.59,3.721-8.311,8.311-8.311l0,0c4.59,0,8.311,3.721,8.311,8.311v14.478C232.198,350.515,228.477,354.236,223.887,354.236z"/>
<path style="fill:#D8D9DD;" d="M288.112,361.7L288.112,361.7c-4.59,0-8.311-3.721-8.311-8.311v-29.407
	c0-4.59,3.721-8.311,8.311-8.311l0,0c4.59,0,8.311,3.721,8.311,8.311v29.407C296.424,357.978,292.703,361.7,288.112,361.7z"/>
<path style="fill:#528ACF;" d="M255.999,307.286h1.786c7.086-16.092,30.346-69.517,55.597-134.071
	c5.934-15.169,8.89-29.166,8.889-41.668h-66.272L255.999,307.286L255.999,307.286z"/>
<g>
</g>
<g>
</g>
<g>
</g>
<g>
</g>
<g>
</g>
<g>
</g>
<g>
</g>
<g>
</g>
<g>
</g>
<g>
</g>
<g>
</g>
<g>
</g>
<g>
</g>
<g>
</g>
<g>
</g>
</svg>
