<svg height="480pt" viewBox="0 -20 480 480" width="480pt" xmlns="http://www.w3.org/2000/svg"><g fill="#9bc9ff"><path d="m296 352.003906h-112v32h56v-8 8h56zm0 0"/><path d="m440 136.003906c0-22.09375-17.910156-40-40-40s-40 17.90625-40 40v216h80zm0 0"/><path d="m120 136.003906c0-22.09375-17.910156-40-40-40s-40 17.90625-40 40v216h80zm0 0"/></g><path d="m416 424.003906c-4.417969 0-8-3.582031-8-8v-24h48c4.417969 0 8-3.582031 8-8v-32c0-4.417968-3.582031-8-8-8h-8v-208c0-26.511718-21.492188-48-48-48s-48 21.488282-48 48v208h-8c-4.417969 0-8 3.582032-8 8v32c0 4.417969 3.582031 8 8 8h48v24c0 4.417969-3.582031 8-8 8h-128c-4.417969 0-8-3.582031-8-8v-24h48c4.417969 0 8-3.582031 8-8v-32c0-4.417968-3.582031-8-8-8h-8v-208c0-26.511718-21.492188-48-48-48s-48 21.488282-48 48v208h-8c-4.417969 0-8 3.582032-8 8v32c0 4.417969 3.582031 8 8 8h48v24c0 4.417969-3.582031 8-8 8h-128c-4.417969 0-8-3.582031-8-8v-24h48c4.417969 0 8-3.582031 8-8v-32c0-4.417968-3.582031-8-8-8h-8v-208c0-26.511718-21.492188-48-48-48s-48 21.488282-48 48v208h-8c-4.417969 0-8 3.582032-8 8v32c0 4.417969 3.582031 8 8 8h48v24c0 4.417969-3.582031 8-8 8h-64v16h64c5.921875-.023437 11.625-2.246094 16-6.242187 4.375 3.996093 10.078125 6.21875 16 6.242187h128c5.921875-.023437 11.625-2.246094 16-6.242187 4.375 3.996093 10.078125 6.21875 16 6.242187h128c5.921875-.023437 11.625-2.246094 16-6.242187 4.375 3.996093 10.078125 6.21875 16 6.242187h64v-16zm-48-288c0-17.675781 14.328125-32 32-32s32 14.324219 32 32v208h-64zm-16 240v-16h96v16zm-144-240c0-17.675781 14.328125-32 32-32s32 14.324219 32 32v208h-64zm-16 240v-16h96v16zm-144-240c0-17.675781 14.328125-32 32-32s32 14.324219 32 32v208h-64zm-16 240v-16h96v16zm0 0" fill="#57a4ff"/><path d="m320 96.003906c22.082031-.027344 39.972656-17.921875 40-40 0-20.097656-28.734375-48.34375-34.496094-53.808594-3.085937-2.925781-7.921875-2.925781-11.007812 0-5.761719 5.464844-34.496094 33.710938-34.496094 53.808594.027344 22.078125 17.917969 39.972656 40 40zm0-76.707031c11.335938 11.847656 24 28.296875 24 36.707031 0 13.253906-10.746094 24-24 24s-24-10.746094-24-24c0-8.394531 12.664062-24.800781 24-36.707031zm0 0" fill="#57a4ff"/></svg>