<?xml version="1.0" encoding="iso-8859-1"?>
<!-- Generator: Adobe Illustrator 19.0.0, SVG Export Plug-In . SVG Version: 6.00 Build 0)  -->
<svg version="1.1" id="Capa_1" xmlns="http://www.w3.org/2000/svg" xmlns:xlink="http://www.w3.org/1999/xlink" x="0px" y="0px"
	 viewBox="0 0 512.079 512.079" style="enable-background:new 0 0 512.079 512.079;" xml:space="preserve">
<g transform="translate(-1 -1)">
	<g transform="translate(1 2)">
		<path style="fill:#7FACFA;" d="M401.111,92.895v6.315c-0.015,98.236-5.686,196.39-16.987,293.973
			c-3.157,27.904-6.815,55.751-10.974,83.541l-1.729,11.435c-0.942,8.02-7.636,14.129-15.709,14.336H175.919
			c-8.073-0.207-14.767-6.316-15.709-14.336l-1.729-11.435c-5.186-35.157-9.696-69.291-13.454-103.083
			c-8.948-78.941-13.765-158.295-14.431-237.739l-0.076-0.341c-0.06-14.496-3.132-28.822-9.02-42.069l0.977-0.597l-11.425-24.661
			l-0.075-0.256l289.307,2.901L401.111,92.895z"/>
		<path style="fill:#FFFFFF;" d="M366.977,92.895v6.315c-0.015,98.236-5.686,196.39-16.987,293.973
			c-3.157,27.904-6.815,55.751-10.974,83.541l-1.729,11.435c-0.942,8.02-7.636,14.129-15.709,14.336H141.786
			c-8.073-0.207-14.767-6.316-15.709-14.336l-1.729-11.435c-5.186-35.157-9.696-69.291-13.454-103.083
			c-8.948-78.941-13.765-158.295-14.431-237.739l-0.076-0.341c-0.06-14.496-3.132-28.822-9.02-42.069l0.977-0.597L76.919,68.234
			l-0.075-0.256l289.307,2.901L366.977,92.895z"/>
		<path style="fill:#E3E7F2;" d="M375.511,92.895v6.315c-0.015,98.246-5.805,196.407-17.34,293.973
			c-3.222,27.904-6.956,55.751-11.202,83.541l-1.765,11.435c-1.048,8.096-7.874,14.198-16.036,14.336h-160.51
			c-8.162-0.138-14.988-6.241-16.035-14.336l-1.765-11.435c-5.294-35.157-9.897-69.291-13.734-103.083
			c-9.134-78.928-14.051-158.287-14.731-237.739l-0.077-0.341c-0.066-14.516-3.204-28.853-9.207-42.069l0.997-0.597l-11.662-24.661
			l272.223,2.645L375.511,92.895z"/>
		
			<linearGradient id="SVGID_1_" gradientUnits="userSpaceOnUse" x1="-48.6015" y1="651.1005" x2="-47.8834" y2="649.7766" gradientTransform="matrix(220.2454 0 0 -119.4667 10869.8984 78139.7031)">
			<stop  offset="0" style="stop-color:#D4E1F4"/>
			<stop  offset="0.1717" style="stop-color:#D4E1F4"/>
			<stop  offset="0.2" style="stop-color:#D4E1F4"/>
			<stop  offset="0.2001" style="stop-color:#DAE4F4"/>
			<stop  offset="0.2007" style="stop-color:#EBEBF4"/>
			<stop  offset="0.2014" style="stop-color:#F6F1F4"/>
			<stop  offset="0.2023" style="stop-color:#FDF4F4"/>
			<stop  offset="0.205" style="stop-color:#FFF5F4"/>
			<stop  offset="0.2522" style="stop-color:#FFF5F4"/>
			<stop  offset="0.26" style="stop-color:#FFF5F4"/>
			<stop  offset="0.26" style="stop-color:#D4E1F4"/>
			<stop  offset="0.3974" style="stop-color:#D4E1F4"/>
			<stop  offset="0.42" style="stop-color:#D4E1F4"/>
			<stop  offset="0.4201" style="stop-color:#DAE4F4"/>
			<stop  offset="0.4207" style="stop-color:#EBEBF4"/>
			<stop  offset="0.4214" style="stop-color:#F6F1F4"/>
			<stop  offset="0.4223" style="stop-color:#FDF4F4"/>
			<stop  offset="0.425" style="stop-color:#FFF5F4"/>
			<stop  offset="0.4894" style="stop-color:#FFF5F4"/>
			<stop  offset="0.5" style="stop-color:#FFF5F4"/>
			<stop  offset="0.5" style="stop-color:#F9F2F4"/>
			<stop  offset="0.5001" style="stop-color:#E8EBF4"/>
			<stop  offset="0.5003" style="stop-color:#DDE5F4"/>
			<stop  offset="0.5005" style="stop-color:#D6E2F4"/>
			<stop  offset="0.501" style="stop-color:#D4E1F4"/>
			<stop  offset="0.7062" style="stop-color:#D4E1F4"/>
			<stop  offset="0.74" style="stop-color:#D4E1F4"/>
			<stop  offset="0.741" style="stop-color:#FFF5F4"/>
			<stop  offset="0.8346" style="stop-color:#FFF5F4"/>
			<stop  offset="0.85" style="stop-color:#FFF5F4"/>
			<stop  offset="0.851" style="stop-color:#D4E1F4"/>
		</linearGradient>
		<path style="fill:url(#SVGID_1_);" d="M356.823,393.183c-3.221,27.904-6.953,55.751-11.197,83.541l-1.764,11.435
			c-1.045,8.094-7.868,14.196-16.028,14.336H166.868c-8.16-0.14-14.982-6.243-16.027-14.336l-1.764-11.435
			c-4.755-31.573-8.972-62.379-12.5-92.757c20.225,9.037,41.865,14.494,63.957,16.128c4.149,0.021,8.296-0.178,12.423-0.597
			c32.286-2.901,54.064-16.469,82.132-16.469c3.681,0,7.746,0.256,11.963,0.683C323.849,385.667,340.482,388.833,356.823,393.183z"
			/>
		<g>
			<path style="fill:#7FACFA;" d="M307.244,203.829v109.739c0.299,9.744-7.325,17.901-17.067,18.261h-85.333
				c-9.742-0.36-17.365-8.518-17.067-18.261V203.829H307.244z"/>
			<path style="fill:#7FACFA;" d="M477.911,58.762v271.275c0.318,5.37-3.766,9.986-9.134,10.325
				c-3.795-0.145-7.103-2.627-8.304-6.229c-5.276-13.954-9.54-28.27-12.757-42.837c-0.906-3.925-1.66-7.851-2.416-11.861
				c-3.415-18.809-5.133-37.886-5.133-57.003V109.962c0.483-8.861-6.244-16.465-15.098-17.067H130.132l-0.981,0.597
				c-0.07-0.213-0.172-0.415-0.302-0.597c-9.58-20.377-23.401-38.472-40.538-53.077c-2.618-2.271-3.633-5.882-2.583-9.185
				c1.05-3.303,3.965-5.663,7.414-6.005h37.518l14.721-3.328c7.926-1.792,15.853-3.413,23.779-4.864
				c9.059-1.621,18.193-3.072,27.252-4.181c8.605,14.677,32.762,25.941,62.882,28.672c4.965,0.519,9.955,0.775,14.947,0.768
				c31.856,0,59.334-9.216,72.545-22.869c1.503-1.443,2.845-3.045,4.001-4.779c17.287,2.73,34.499,6.257,51.635,10.581h45.294
				C465.45,25.776,478.935,41.02,477.911,58.762z"/>
		</g>
		<path style="fill:#FFFFFF;" d="M426.711,58.762v35.669c-1.976-1.027-4.173-1.555-6.4-1.536H78.892l-0.939,0.597
			c-0.081-0.216-0.196-0.418-0.341-0.597c-9.561-20.387-23.383-38.486-40.533-53.077c-2.612-2.279-3.62-5.893-2.563-9.194
			c1.057-3.301,3.976-5.658,7.427-5.995h37.632l14.592-3.328c7.936-1.792,15.872-3.413,23.808-4.864
			c9.045-1.621,18.176-3.072,27.221-4.181c0.17,0.304,0.37,0.59,0.597,0.853c8.96,14.251,32.768,25.173,62.293,27.819
			c4.961,0.518,9.946,0.774,14.933,0.768c1.109,0,2.219,0,3.243-0.085h2.645c29.44-1.109,54.357-9.984,66.645-22.784
			c1.52-1.43,2.866-3.034,4.011-4.779c3.669,0.597,7.339,1.195,11.008,1.877c13.653,2.389,27.136,5.291,40.619,8.704h45.312
			C414.247,25.76,427.745,41.012,426.711,58.762z"/>
		<path style="fill:#E3E7F2;" d="M443.777,58.762v232.533c-0.939-3.925-1.707-7.851-2.475-11.861
			c-3.588-18.788-5.388-37.875-5.376-57.003V109.962c0.138-6.51-3.436-12.533-9.216-15.531c-1.976-1.027-4.173-1.555-6.4-1.536
			H113.367c-10.042-20.489-24.358-38.588-41.984-53.077c-2.712-2.249-3.776-5.926-2.684-9.276c1.091-3.35,4.117-5.694,7.633-5.914
			h7.595l15.275-3.328c15.445-3.413,30.976-6.144,46.592-8.192c2.133-0.341,4.181-0.597,6.315-0.853
			c0.889,1.467,1.887,2.865,2.987,4.181c12.032,13.909,38.997,23.979,71.168,25.173h2.645c1.28,0.085,2.56,0.085,3.84,0.085
			c5.376,0,10.667-0.256,15.787-0.768c28.416-2.645,51.712-12.203,62.037-25.003c0.512-0.597,1.024-1.28,1.451-1.877
			c9.131,1.365,18.091,2.987,27.136,4.779c8.789,1.707,17.664,3.669,26.368,5.803h46.933
			C430.524,25.427,444.533,40.696,443.777,58.762z"/>
		<path style="fill:#7FACFA;" d="M358.444,92.895v68.267c-0.022,28.268-22.932,51.178-51.2,51.2H187.777
			c-9,0.043-17.845-2.345-25.6-6.912c-15.845-9.117-25.608-26.008-25.6-44.288V92.895H358.444z"/>
		<g>
			<path style="fill:#D4E1F4;" d="M281.644,203.829v109.739c0.299,9.744-7.325,17.901-17.067,18.261h-59.733
				c-9.742-0.36-17.365-8.518-17.067-18.261V212.362h-25.6v-8.533H281.644z"/>
			<path style="fill:#D4E1F4;" d="M332.844,92.895v68.267c0.008,18.28-9.755,35.171-25.6,44.288c-7.755,4.567-16.6,6.955-25.6,6.912
				H162.177v-6.912c-15.845-9.117-25.608-26.008-25.6-44.288V92.895H332.844z"/>
		</g>
		<path style="fill:#7FACFA;" d="M334.209,14.047c-12.288,16.128-46.336,27.648-86.528,27.648c-41.643,0-76.715-12.373-87.979-29.44
			C217.713,5.469,276.35,6.071,334.209,14.047z"/>
	</g>
	<g>
		<path style="fill:#FFFFFF;" d="M103.529,137.811c0.447,36.831,1.742,73.643,4.119,110.385
			c3.182,49.752,8.378,99.363,15.126,148.787c3.362,24.71,7.114,49.374,11.253,73.991l3.091,18.123
			c0.787,3.165,3.251,5.64,6.412,6.443c0.831,0.244,1.691,0.378,2.558,0.398l4.405,0.023h197.134
			c2.165,0.222,4.353,0.021,6.441-0.59c1.565-0.551,2.964-1.491,4.066-2.73c1.039-1.198,1.705-2.674,1.915-4.245l1.59-9.265
			l3.033-18.458c3.941-24.619,7.565-49.302,10.706-74.041c6.301-49.479,10.976-99.128,14.024-148.947
			c1.569-24.89,2.58-49.811,3.295-74.738l0.744-37.399l0.125-22.119H94.911V86.362h302.137l9.381,0.006l2.344,0.003l1.172,0.002
			c0.42-0.029,0.856-0.074,0.7,0.473v4.69l-0.03,15.351l-0.107,18.846l-0.749,37.684c-0.721,25.116-1.74,50.227-3.32,75.306
			c-3.044,50.163-7.754,100.186-14.131,150.07c-3.165,24.929-6.814,49.787-10.788,74.604l-3.055,18.594l-1.586,9.24
			c-0.743,4.653-2.764,9.008-5.838,12.579c-3.048,3.489-6.947,6.129-11.318,7.666c-3.903,1.252-8.003,1.778-12.096,1.554H150.492
			l-4.981-0.033c-2.265-0.067-4.512-0.42-6.689-1.05c-9.211-2.545-16.277-9.948-18.392-19.267l-3.236-18.888
			c-4.137-24.78-7.914-49.611-11.33-74.493c-6.797-49.783-12.039-99.822-15.248-150.002c-2.397-37.059-3.703-74.183-4.154-111.301
			L103.529,137.811z"/>
		<g>
			<path style="fill:#428DFF;" d="M93.964,214.136c1.046,0.39,2.159,0.569,3.274,0.53c2.253-0.142,4.371-1.124,5.935-2.752
				c1.477-1.698,2.259-3.891,2.188-6.141c-0.143-2.245-1.113-4.357-2.723-5.928l-1.316-0.97c-0.488-0.304-1.014-0.543-1.564-0.708
				c-0.493-0.226-1.017-0.377-1.555-0.447c-0.567-0.074-1.138-0.109-1.709-0.104c-2.259,0.12-4.39,1.091-5.963,2.717
				c-1.989,2.087-2.773,5.047-2.077,7.845C89.151,210.976,91.229,213.224,93.964,214.136L93.964,214.136z"/>
			<path style="fill:#428DFF;" d="M444.777,18.095h-50.32c-96.401-21.669-196.29-22.75-293.138-3.175l-15.796,3.175H43.986
				c-7.411-0.102-14.043,4.587-16.417,11.608c-2.388,6.841-0.092,14.441,5.683,18.817c19.842,15.392,53.125,47.433,53.125,89.042
				c0,0.154,0.08,0.282,0.087,0.433h-0.002l0.668,34.263c0.069,3.056,1.768,5.842,4.453,7.303c2.685,1.461,5.947,1.374,8.55-0.228
				s4.151-4.475,4.057-7.53l-0.662-33.991l-0.135,0.002c0.002-0.088,0.05-0.161,0.05-0.251c-0.03-11.644-2.085-23.194-6.072-34.133
				h31.672v59.733c0.055,29.66,21.847,54.794,51.2,59.052v94.548c0.015,14.132,11.468,25.585,25.6,25.6h85.333
				c14.132-0.015,25.585-11.468,25.6-25.6v-94.548c29.353-4.257,51.145-29.392,51.2-59.052v-59.733h25.589l-0.125,22.118
				l-0.744,37.399c-0.715,24.927-1.727,49.848-3.295,74.738c-2.984,49.185-7.588,98.235-13.811,147.152
				c-20.17-4.744-40.75-7.537-61.456-8.341c-16.529,0.527-32.914,3.248-48.725,8.092c-18.337,5.538-37.341,8.557-56.491,8.975
				c-28.252,0-69.505-15.654-89.677-24.091c-5.016-40.318-9.002-80.746-11.594-121.274l-0.521-8.481
				c-0.166-3.056-1.956-5.789-4.692-7.163s-5.997-1.177-8.547,0.515c-2.55,1.692-3.999,4.621-3.797,7.675l0.525,8.554
				c3.209,50.18,8.451,100.219,15.248,150.002c3.389,24.898,7.165,49.73,11.33,74.493l3.236,18.887
				c2.114,9.319,9.181,16.722,18.392,19.267c2.176,0.63,4.424,0.982,6.689,1.05l4.981,0.033h197.134
				c4.093,0.224,8.193-0.302,12.096-1.554c4.371-1.536,8.27-4.177,11.318-7.666c3.074-3.571,5.095-7.926,5.838-12.579l1.586-9.24
				l3.055-18.594c3.973-24.817,7.622-49.675,10.788-74.604c6.348-49.851,11.059-99.874,14.131-150.07
				c1.58-25.079,2.6-50.19,3.32-75.306l0.749-37.684l0.107-18.846l0.007-3.458h8.556c4.712,0.003,8.53,3.822,8.533,8.533v112.467
				c-0.046,39.564,7.991,78.72,23.617,115.067c3.522,8.21,12.331,12.812,21.082,11.015c8.751-1.797,15.033-9.498,15.035-18.432
				V60.762C487.416,37.209,468.33,18.123,444.777,18.095z M364.672,460.673l-3.033,18.458l-1.59,9.265
				c-0.21,1.572-0.875,3.048-1.915,4.245c-1.102,1.24-2.501,2.179-4.066,2.73c-2.089,0.611-4.276,0.812-6.441,0.59H150.492
				l-4.405-0.023c-0.866-0.02-1.726-0.154-2.558-0.398c-3.161-0.802-5.625-3.278-6.412-6.443l-3.091-18.123
				c-4.107-24.602-7.858-49.265-11.253-73.991c-0.367-2.687-0.678-5.38-1.035-8.068c24.779,9.841,60.225,21.712,87.181,21.712
				c20.603-0.42,41.055-3.624,60.8-9.525c14.415-4.435,29.346-6.97,44.417-7.542c19.939,0.89,39.751,3.651,59.173,8.245
				C370.66,421.463,367.781,441.085,364.672,460.673z M313.373,22.109c-20.276,9.263-42.414,13.729-64.696,13.053
				c-23.335,0.772-46.504-4.177-67.486-14.416C225.192,16.915,269.461,17.371,313.373,22.109z M299.711,316.762
				c-0.003,4.712-3.822,8.53-8.533,8.533h-85.333c-4.712-0.003-8.53-3.822-8.533-8.533v-93.867h102.4V316.762z M350.911,163.162
				c-0.028,23.553-19.114,42.639-42.667,42.667H188.777c-23.553-0.028-42.639-19.114-42.667-42.667v-59.733h204.8V163.162z
				 M470.377,332.079c-0.102,0.768-0.679,1.387-1.437,1.543s-1.533-0.186-1.929-0.851c-14.708-34.224-22.273-71.091-22.233-108.342
				V111.962c-0.015-14.132-11.468-25.585-25.6-25.6h-17.067l-0.015,0.003l-5.048-0.003H89.586
				c-11.664-19.914-27.164-37.317-45.6-51.2h42.158c0.279-0.041,0.556-0.097,0.829-0.167c0.362,0.025,0.726,0.025,1.088,0.001
				l16.625-3.342c17.43-3.506,34.908-6.098,52.403-8.248c15.582,17.408,51.207,28.823,91.589,28.823
				c39.144,0,73.375-10.423,89.668-26.881c17.824,2.576,35.627,5.62,53.366,9.606c0.609,0.137,1.232,0.206,1.856,0.206l0.01,0.002
				h51.2c14.132,0.015,25.585,11.468,25.6,25.6V332.079z"/>
		</g>
	</g>
</g>
<g>
</g>
<g>
</g>
<g>
</g>
<g>
</g>
<g>
</g>
<g>
</g>
<g>
</g>
<g>
</g>
<g>
</g>
<g>
</g>
<g>
</g>
<g>
</g>
<g>
</g>
<g>
</g>
<g>
</g>
</svg>
