<?xml version="1.0"?>
<svg xmlns="http://www.w3.org/2000/svg" id="Layer_1" data-name="Layer 1" viewBox="0 0 512 512" width="512" height="512"><title>Sales funnel 2</title><path d="M260.357,375.291A6.246,6.246,0,0,1,257,370.034V330.155L160.667,176.183A6.212,6.212,0,0,1,166,167H126a6.212,6.212,0,0,0-5.333,9.183L217,330.155v39.879a6.246,6.246,0,0,0,3.357,5.257l65.125,35.769a6.239,6.239,0,0,0,2.956.743,5.256,5.256,0,0,0,2.834-.835A5.8,5.8,0,0,0,294,405.8V393.769Z" style="fill:#d4e1f4"/><path d="M286.775,91.249a36.3,36.3,0,1,0-36.3-36.3A36.346,36.346,0,0,0,286.775,91.249Zm0-60.609a24.3,24.3,0,1,1-24.3,24.3A24.332,24.332,0,0,1,286.775,30.64Z" style="fill:#0635c9"/><path d="M189.023,79.249a36.305,36.305,0,1,0,36.305,36.305A36.346,36.346,0,0,0,189.023,79.249Zm0,60.61a24.305,24.305,0,1,1,24.305-24.305A24.332,24.332,0,0,1,189.023,139.859Z" style="fill:#0635c9"/><path d="M295.09,135.012a36.346,36.346,0,0,0-36.3,36.3,6,6,0,0,0,12,0,24.305,24.305,0,0,1,48.61,0,6,6,0,1,0,12,0A36.345,36.345,0,0,0,295.09,135.012Z" style="fill:#0635c9"/><path d="M256.47,416.36a38.5,38.5,0,1,0,38.5,38.5A38.544,38.544,0,0,0,256.47,416.36Zm0,65a26.5,26.5,0,1,1,26.5-26.5A26.53,26.53,0,0,1,256.47,481.36Z" style="fill:#0635c9"/><path d="M386,167H126a6.212,6.212,0,0,0-5.333,9.183L217,330.155v39.879a6.246,6.246,0,0,0,3.357,5.257l65.125,35.769a6.239,6.239,0,0,0,2.956.743,5.256,5.256,0,0,0,2.834-.835A5.8,5.8,0,0,0,294,405.8V330.155l96.833-153.973a6,6,0,0,0,.292-6.09A5.8,5.8,0,0,0,386,167ZM283.167,325.164A6.559,6.559,0,0,0,282,328.429v67.223l-53-29.165V328.429a6.074,6.074,0,0,0-.667-3.265L169.564,231H342.436ZM349.963,219H162.037l-25.191-40H375.154Z" style="fill:#1ae5be"/></svg>
