<svg height="480pt" viewBox="0 0 480 480" width="480pt" xmlns="http://www.w3.org/2000/svg"><g fill="#9bc9ff"><path d="m8 128h104v48h-104zm0 0"/><path d="m312 296h24v48h-24zm0 0"/><path d="m144 128h24v48h-24zm0 0"/><path d="m368 296h104v48h-104zm0 0"/><path d="m112 8h256v64h-256zm0 0"/><path d="m144 120c0-8.835938-7.164062-16-16-16s-16 7.164062-16 16v64c0 8.835938 7.164062 16 16 16s16-7.164062 16-16zm0 0"/><path d="m368 288c0-8.835938-7.164062-16-16-16s-16 7.164062-16 16v64c0 8.835938 7.164062 16 16 16s16-7.164062 16-16zm0 0"/><path d="m240 272c17.671875 0 32-14.328125 32-32s-32-48-32-48-32 30.328125-32 48 14.328125 32 32 32zm0 0"/></g><path d="m136 24h32v16h-32zm0 0" fill="#57a4ff"/><path d="m184 24h16v16h-16zm0 0" fill="#57a4ff"/><path d="m472 288h-96c0-13.253906-10.746094-24-24-24s-24 10.746094-24 24h-8v-208h48c4.417969 0 8-3.582031 8-8v-64c0-4.417969-3.582031-8-8-8h-256c-4.417969 0-8 3.582031-8 8v64c0 4.417969 3.582031 8 8 8h48v40h-8c0-13.253906-10.746094-24-24-24s-24 10.746094-24 24h-96c-4.417969 0-8 3.582031-8 8v48c0 4.417969 3.582031 8 8 8h96c0 13.253906 10.746094 24 24 24s24-10.746094 24-24h8v216c0 44.183594 35.816406 80 80 80s80-35.816406 80-80v-48h8c0 13.253906 10.746094 24 24 24s24-10.746094 24-24h96c4.417969 0 8-3.582031 8-8v-48c0-4.417969-3.582031-8-8-8zm-352-272h240v48h-240zm-104 152v-32h88v32zm120 16c0 4.417969-3.582031 8-8 8s-8-3.582031-8-8v-64c0-4.417969 3.582031-8 8-8s8 3.582031 8 8zm16-16v-32h8v32zm152 232c0 35.347656-28.652344 64-64 64s-64-28.652344-64-64v-320h128zm16-64v-32h8v32zm40 16c0 4.417969-3.582031 8-8 8s-8-3.582031-8-8v-64c0-4.417969 3.582031-8 8-8s8 3.582031 8 8zm104-16h-88v-32h88zm0 0" fill="#57a4ff"/><path d="m240 280c22.082031-.027344 39.972656-17.917969 40-40 0-20.097656-28.734375-48.34375-34.496094-53.808594-3.085937-2.925781-7.921875-2.925781-11.007812 0-5.761719 5.464844-34.496094 33.710938-34.496094 53.808594.027344 22.082031 17.917969 39.972656 40 40zm0-76.703125c11.335938 11.847656 24 28.296875 24 36.703125 0 13.253906-10.746094 24-24 24s-24-10.746094-24-24c0-8.390625 12.664062-24.800781 24-36.703125zm0 0" fill="#57a4ff"/><path d="m261.65625 290.34375-11.3125 11.3125 10.34375 10.34375h-52.6875v16h52.6875l-10.34375 10.34375 11.3125 11.3125 24-24-.054688-.054688c1.542969-1.464843 2.421876-3.496093 2.429688-5.625.007812-2.125-.851562-4.164062-2.382812-5.640624zm0 0" fill="#57a4ff"/></svg>